<mxfile host="Electron" modified="2023-07-03T11:58:50.076Z" agent="Mozilla/5.0 (Macintosh; Intel Mac OS X 10_15_7) AppleWebKit/537.36 (KHTML, like Gecko) draw.io/21.5.1 Chrome/112.0.5615.204 Electron/24.6.0 Safari/537.36" etag="Mz-MHeSPdamN2IaLbqrM" version="21.5.1" type="device">
  <diagram name="Страница 1" id="AQ-EMmjLVaQ5YphDZwDo">
    <mxGraphModel dx="1004" dy="615" grid="1" gridSize="10" guides="1" tooltips="1" connect="1" arrows="1" fold="1" page="1" pageScale="1" pageWidth="827" pageHeight="1169" math="0" shadow="0">
      <root>
        <mxCell id="0" />
        <mxCell id="1" parent="0" />
        <mxCell id="PQmkq8YqTiCSb1fcYC3Y-2" value="" style="ellipse;html=1;shape=startState;fillColor=#000000;strokeColor=#ff0000;" vertex="1" parent="1">
          <mxGeometry x="399" y="40" width="30" height="30" as="geometry" />
        </mxCell>
        <mxCell id="PQmkq8YqTiCSb1fcYC3Y-3" value="" style="edgeStyle=orthogonalEdgeStyle;html=1;verticalAlign=bottom;endArrow=open;endSize=8;strokeColor=#ff0000;rounded=0;" edge="1" source="PQmkq8YqTiCSb1fcYC3Y-2" parent="1">
          <mxGeometry relative="1" as="geometry">
            <mxPoint x="414" y="130" as="targetPoint" />
          </mxGeometry>
        </mxCell>
        <mxCell id="PQmkq8YqTiCSb1fcYC3Y-4" value="Заходим в каталог" style="rounded=1;whiteSpace=wrap;html=1;" vertex="1" parent="1">
          <mxGeometry x="354" y="150" width="120" height="60" as="geometry" />
        </mxCell>
      </root>
    </mxGraphModel>
  </diagram>
</mxfile>
